<svg width="143" height="36" viewBox="0 0 143 36" fill="none" xmlns="http://www.w3.org/2000/svg">
<path d="M49.4591 6.63093H43.3245C43.3245 5.89697 43.4005 5.13771 43.5273 4.42906C43.654 3.6951 43.8568 2.93583 44.1103 2.17657H61.6778C61.6778 2.91052 61.6017 3.64448 61.475 4.37844C61.3482 5.08709 61.1454 5.84636 60.8919 6.65624H54.7572L51.0055 28.0676C50.0168 28.2194 49.1296 28.2953 48.293 28.2953C47.4311 28.2953 46.5692 28.2194 45.7073 28.0676L49.4591 6.63093Z" fill="white"/>
<path d="M74.2005 23.1576C74.454 23.7904 74.6821 24.4737 74.8342 25.2583C74.9863 26.0175 75.0877 26.7768 75.1384 27.5361C74.6061 27.7639 74.0484 27.9157 73.44 28.0676C72.8316 28.1941 72.2485 28.2953 71.6908 28.346C71.1331 28.3966 70.6008 28.4472 70.0938 28.4725C69.6121 28.4978 69.2065 28.4978 68.9277 28.4978C67.1786 28.4978 65.6322 28.27 64.3394 27.7892C63.0212 27.3083 61.9311 26.625 61.0692 25.7645C60.182 24.8786 59.5483 23.841 59.092 22.6262C58.661 21.4113 58.4329 20.07 58.4329 18.5767C58.4329 16.2483 58.7878 14.0717 59.4722 12.0217C60.1567 9.97171 61.1453 8.20009 62.4128 6.68156C63.6803 5.16302 65.2013 3.94819 66.9758 3.08769C68.7502 2.20188 70.7275 1.77163 72.8823 1.77163C74.023 1.77163 75.0117 1.84756 75.8989 1.9741C76.7861 2.10065 77.6734 2.37904 78.6113 2.8093C78.4592 3.54325 78.2818 4.2519 78.0536 4.90993C77.8255 5.56797 77.4959 6.27661 77.0903 7.03588C76.2791 6.73217 75.5693 6.5297 74.9356 6.42847C74.3272 6.32723 73.7442 6.27661 73.1865 6.27661C71.5641 6.27661 70.1952 6.63094 69.0291 7.31428C67.863 8.02293 66.9251 8.90874 66.1899 10.0223C65.4548 11.1359 64.9224 12.4014 64.5675 13.8187C64.2126 15.236 64.0352 16.6533 64.0352 18.0959C64.0352 20.07 64.5422 21.5379 65.5562 22.4996C66.5702 23.4613 68.0405 23.9422 69.9417 23.9422C70.2966 23.9422 70.6261 23.9422 70.9557 23.9169C71.2599 23.8916 71.5894 23.8663 71.8936 23.8157C72.1978 23.7651 72.5527 23.6891 72.9076 23.5879C73.3386 23.436 73.7442 23.3095 74.2005 23.1576Z" fill="white"/>
<path d="M80.6141 2.17657H94.81C94.81 2.2778 94.81 2.37904 94.8354 2.45496C94.8354 2.5562 94.8607 2.65744 94.8607 2.73336C94.8607 3.36608 94.7847 3.99881 94.6326 4.63153C94.4805 5.28956 94.2777 5.94759 94.0242 6.60562H85.0757L84.1124 12.2242H91.2104C91.2104 13.6668 90.9569 15.16 90.4245 16.7292H83.3266L82.1098 23.5626H91.3118C91.3118 23.6638 91.3118 23.7397 91.3371 23.841C91.3371 23.9169 91.3625 24.0181 91.3625 24.1194C91.3625 24.7774 91.2864 25.4101 91.1343 26.0429C90.9822 26.6756 90.7794 27.3336 90.5766 28.0423H76.1272L80.6141 2.17657Z" fill="white"/>
<path d="M103.581 15.2866C103.606 16.0205 103.556 16.7798 103.404 17.5391C103.251 18.2983 103.074 19.0323 102.82 19.7156H93.7959C93.7959 19.007 93.8719 18.273 93.9987 17.5644C94.1254 16.8557 94.3282 16.0965 94.5564 15.2866H103.581Z" fill="white"/>
<path d="M114.228 2.17657C114.71 2.10064 115.217 2.05002 115.749 2.02472C116.281 1.99941 116.788 1.9741 117.27 1.9741C118.259 1.9741 119.247 2.05002 120.236 2.20188L123.405 28.0929C122.492 28.2447 121.605 28.3207 120.768 28.3207C119.932 28.3207 119.019 28.2447 118.056 28.0929L117.6 22.8792H109.69L107.384 28.0929C106.522 28.2447 105.609 28.3207 104.671 28.3207C103.759 28.3207 102.897 28.2447 102.085 28.0929L114.228 2.17657ZM117.219 18.5261L116.281 8.14947L111.668 18.5261H117.219Z" fill="white"/>
<path d="M127.79 2.10064C128.323 2.05002 128.804 1.9994 129.26 1.94879C129.717 1.89817 130.173 1.84755 130.604 1.82224C131.06 1.79693 131.491 1.77163 131.948 1.74632C132.404 1.74632 132.886 1.72101 133.418 1.72101C134.457 1.72101 135.522 1.82225 136.663 1.99941C137.803 2.20188 138.817 2.5562 139.755 3.08769C140.693 3.61917 141.479 4.37844 142.088 5.36549C142.696 6.35253 143 7.61798 143 9.18713C143 10.7057 142.747 12.0977 142.214 13.3884C141.707 14.6792 140.947 15.8181 139.958 16.7545C138.969 17.6909 137.778 18.4502 136.358 18.9564C134.939 19.4879 133.342 19.7409 131.517 19.7409C131.136 19.7409 130.807 19.7409 130.579 19.7156C130.351 19.7156 130.122 19.6903 129.894 19.665L128.449 27.9916C127.968 28.0676 127.511 28.1182 127.08 28.1435C126.649 28.1688 126.218 28.1688 125.813 28.1688C125.458 28.1688 125.052 28.1688 124.596 28.1435C124.14 28.1182 123.684 28.0676 123.177 27.9916L127.79 2.10064ZM130.705 15.3625C131.01 15.4384 131.567 15.4637 132.328 15.4637C132.911 15.4637 133.494 15.3625 134.102 15.1853C134.711 14.9829 135.268 14.6792 135.75 14.2236C136.257 13.768 136.663 13.1606 136.992 12.4267C137.322 11.6927 137.474 10.7563 137.474 9.61738C137.474 8.93404 137.347 8.35194 137.119 7.89638C136.891 7.44082 136.587 7.08649 136.206 6.8334C135.826 6.58032 135.421 6.40316 134.964 6.30192C134.508 6.20068 134.052 6.15006 133.621 6.15006C133.418 6.15006 133.24 6.15006 133.088 6.15006C132.911 6.15006 132.657 6.17537 132.302 6.22599L130.705 15.3625Z" fill="white"/>
<path d="M42.2345 31.8386H41.3979C41.3979 31.7627 41.398 31.712 41.4233 31.6361C41.4233 31.5602 41.4487 31.4843 41.474 31.4336H43.6541C43.6541 31.5096 43.6541 31.5855 43.6287 31.6361C43.6034 31.712 43.6034 31.7627 43.578 31.8386H42.7415L42.2091 34.825C42.1331 34.825 42.0317 34.8504 41.9557 34.8504C41.905 34.8504 41.8796 34.8504 41.8289 34.8504C41.7782 34.8504 41.7529 34.8504 41.7275 34.8504L42.2345 31.8386Z" fill="white"/>
<path d="M44.2624 31.4337C44.3892 31.4083 44.4906 31.4084 44.6173 31.383C44.7187 31.383 44.8455 31.383 44.9469 31.383C45.099 31.383 45.2257 31.4083 45.3525 31.4337C45.4792 31.459 45.606 31.5096 45.7074 31.5855C45.8088 31.6614 45.8848 31.7374 45.9609 31.8386C46.0116 31.9398 46.0623 32.0917 46.0623 32.2435C46.0623 32.4207 46.0369 32.5472 45.9862 32.6738C45.9355 32.8003 45.8595 32.9016 45.7834 33.0028C45.7074 33.104 45.606 33.18 45.5299 33.2306C45.4285 33.2812 45.3525 33.3318 45.2511 33.3824L45.8595 34.825C45.7581 34.825 45.682 34.8503 45.5806 34.8503C45.4792 34.8503 45.4032 34.8503 45.3271 34.825L44.668 33.2306L44.7187 33.2053C44.7441 33.2053 44.7694 33.18 44.8201 33.18C44.8708 33.1547 44.9215 33.1293 44.9976 33.104C45.0483 33.0787 45.1243 33.0281 45.2004 32.9775C45.2764 32.9269 45.3271 32.8763 45.3778 32.8003C45.4285 32.7244 45.4792 32.6485 45.5046 32.5726C45.5299 32.4966 45.5553 32.3954 45.5553 32.2942C45.5553 32.117 45.5046 31.9651 45.4032 31.8892C45.3018 31.8133 45.1497 31.7627 44.9469 31.7627C44.8962 31.7627 44.8455 31.7627 44.8201 31.7627C44.7694 31.7627 44.7441 31.7627 44.6934 31.788L44.161 34.825C44.1357 34.825 44.085 34.825 44.0343 34.825C43.9836 34.825 43.9582 34.825 43.9076 34.825C43.8569 34.825 43.8315 34.825 43.7808 34.825C43.7301 34.825 43.7048 34.825 43.6541 34.825L44.2624 31.4337Z" fill="white"/>
<path d="M47.0003 31.4336C47.051 31.4336 47.0763 31.4336 47.127 31.4083C47.1777 31.4083 47.2031 31.4083 47.2538 31.4083C47.3045 31.4083 47.3298 31.4083 47.3805 31.4083C47.4312 31.4083 47.4566 31.4083 47.5073 31.4336L46.8989 34.825C46.8482 34.825 46.8228 34.825 46.7721 34.8504C46.7214 34.8504 46.6961 34.8504 46.6454 34.8504C46.5947 34.8504 46.5693 34.8504 46.5186 34.8504C46.4679 34.8504 46.4426 34.8504 46.4172 34.825L47.0003 31.4336Z" fill="white"/>
<path d="M48.3692 31.4337C48.4452 31.4337 48.5466 31.4083 48.6987 31.4083C48.8255 31.4083 48.9522 31.383 49.079 31.383C49.2311 31.383 49.3832 31.4083 49.5099 31.4337C49.6367 31.459 49.7634 31.5096 49.8395 31.5602C49.9409 31.6108 50.0169 31.6867 50.0676 31.788C50.1183 31.8892 50.1437 31.9905 50.1437 32.117C50.1437 32.2435 50.1183 32.3448 50.093 32.446C50.0676 32.5472 50.0169 32.6485 49.9409 32.7244C49.8902 32.8003 49.8141 32.8763 49.7127 32.9269C49.6367 32.9775 49.5606 33.0281 49.4592 33.0281C49.6367 33.0534 49.7634 33.1294 49.8902 33.2559C49.9916 33.3824 50.0676 33.5343 50.0676 33.7368C50.0676 33.9392 50.0169 34.1164 49.9409 34.2682C49.8648 34.4201 49.7634 34.5466 49.6113 34.6226C49.4846 34.7238 49.3071 34.7744 49.1297 34.825C48.9522 34.8757 48.7494 34.901 48.5466 34.901C48.4199 34.901 48.2931 34.901 48.1664 34.8757C48.0396 34.8757 47.9129 34.8503 47.7861 34.825L48.3692 31.4337ZM48.3185 34.4454C48.3438 34.4454 48.3945 34.4454 48.4452 34.4707C48.4959 34.4707 48.5466 34.4707 48.6227 34.4707C48.7241 34.4707 48.8255 34.4707 48.9522 34.4454C49.0536 34.4201 49.155 34.3948 49.2564 34.3442C49.3578 34.2936 49.4085 34.2176 49.4846 34.1164C49.5353 34.0152 49.5606 33.8886 49.5606 33.7621C49.5606 33.6608 49.5353 33.5849 49.5099 33.5343C49.4846 33.4584 49.4339 33.4077 49.3832 33.3824C49.3325 33.3318 49.2564 33.3065 49.1804 33.3065C49.1043 33.2812 49.0029 33.2812 48.9269 33.2812H48.5466L48.3185 34.4454ZM48.9522 32.851C49.155 32.851 49.3325 32.8003 49.4592 32.6738C49.586 32.5472 49.662 32.3954 49.662 32.1929C49.662 32.0411 49.6113 31.9145 49.5099 31.8639C49.4085 31.788 49.2818 31.7627 49.1043 31.7627C49.0536 31.7627 49.0029 31.7627 48.9522 31.7627C48.9015 31.7627 48.8508 31.7627 48.8255 31.788L48.648 32.851H48.9522Z" fill="white"/>
<path d="M51.1069 31.4337C51.1576 31.4337 51.183 31.4337 51.2337 31.4083C51.2844 31.383 51.3097 31.4083 51.3604 31.4083C51.4111 31.4083 51.4365 31.4083 51.4872 31.4083C51.5379 31.4083 51.5632 31.4083 51.6139 31.4337L51.2844 33.3571C51.259 33.5849 51.2337 33.7621 51.2337 33.9139C51.2337 34.1164 51.2844 34.2429 51.3604 34.3189C51.4365 34.3948 51.5886 34.4454 51.7914 34.4454C51.9181 34.4454 52.0449 34.4201 52.1463 34.3695C52.2477 34.3189 52.3237 34.2429 52.3998 34.167C52.4758 34.0658 52.5265 33.9645 52.5772 33.8127C52.6279 33.6861 52.6533 33.509 52.6786 33.3318L53.0082 31.4083C53.0589 31.4083 53.0842 31.4084 53.1349 31.383C53.1856 31.383 53.211 31.383 53.2617 31.383C53.287 31.383 53.3377 31.383 53.3884 31.383C53.4391 31.383 53.4645 31.383 53.5152 31.4083L53.1603 33.4584C53.1096 33.6861 53.0589 33.8886 53.0082 34.0658C52.9321 34.2429 52.8561 34.3948 52.7547 34.496C52.6533 34.6226 52.5012 34.6985 52.3491 34.7744C52.197 34.825 51.9942 34.8757 51.766 34.8757C51.4365 34.8757 51.2083 34.7997 51.0309 34.6479C50.8788 34.496 50.8027 34.2429 50.8027 33.9392C50.8027 33.8633 50.8027 33.7874 50.8281 33.7114C50.8281 33.6355 50.8534 33.5343 50.8534 33.4584L51.1069 31.4337Z" fill="white"/>
<path d="M54.3011 31.4336C54.3265 31.4336 54.3772 31.4336 54.4279 31.4336C54.4786 31.4336 54.5039 31.4336 54.5546 31.4336C54.6307 31.4336 54.7067 31.4336 54.7574 31.459L55.7207 34.0152L56.177 31.459C56.2023 31.459 56.2277 31.459 56.2784 31.459C56.3037 31.459 56.3291 31.459 56.3798 31.459H56.4812L56.6333 31.4843L56.0249 34.8757C55.9995 34.8757 55.9488 34.8757 55.9235 34.8757C55.8728 34.8757 55.8474 34.8757 55.7967 34.8757C55.7714 34.8757 55.7207 34.8757 55.6953 34.8757C55.67 34.8757 55.6193 34.8757 55.5939 34.8757L54.6307 32.3195L54.1997 34.8757C54.149 34.8757 54.073 34.901 54.0223 34.901H53.8955L53.7434 34.8757L54.3011 31.4336Z" fill="white"/>
<path d="M58.1542 31.4336C58.2049 31.4336 58.2556 31.4336 58.3063 31.4336C58.357 31.4336 58.4077 31.4336 58.4584 31.4336C58.5091 31.4336 58.5598 31.4336 58.6105 31.4336C58.6612 31.4336 58.7119 31.4336 58.7372 31.4336L59.1935 34.825C59.0921 34.825 59.0161 34.8504 58.9147 34.8504C58.8386 34.8504 58.7626 34.8503 58.6865 34.825L58.5851 34.0152H57.4444L57.0895 34.825C57.0135 34.825 56.9374 34.8504 56.836 34.8504C56.7853 34.8504 56.76 34.8504 56.7093 34.8504C56.6586 34.8504 56.6332 34.8504 56.5825 34.8504L58.1542 31.4336ZM58.5598 33.6102L58.357 31.9651L57.6472 33.6102H58.5598Z" fill="white"/>
<path d="M60.3342 31.4336C60.3596 31.4336 60.4103 31.4336 60.461 31.4083C60.5117 31.383 60.537 31.4083 60.5877 31.4083C60.6384 31.4083 60.6638 31.4083 60.7145 31.4083C60.7398 31.4083 60.7905 31.4083 60.8159 31.4336L60.2835 34.4201H61.551C61.551 34.496 61.5257 34.572 61.5257 34.6479C61.5257 34.7238 61.5003 34.7744 61.475 34.8503H59.7258L60.3342 31.4336Z" fill="white"/>
<path d="M64.8465 31.4337C64.8972 31.4337 64.9479 31.4337 65.024 31.4083C65.0747 31.4083 65.1507 31.4084 65.2268 31.383C65.3028 31.383 65.3535 31.383 65.4296 31.383C65.4803 31.383 65.5563 31.383 65.607 31.383C65.8605 31.383 66.0887 31.4083 66.2915 31.4843C66.4942 31.5602 66.6463 31.6361 66.7731 31.7627C66.8998 31.8892 66.9759 32.0411 67.0519 32.1929C67.1026 32.3701 67.128 32.5472 67.128 32.7497C67.128 33.0534 67.0773 33.3318 67.0012 33.5849C66.9252 33.838 66.7731 34.0658 66.621 34.2682C66.4435 34.4707 66.2407 34.6226 65.9873 34.7238C65.7338 34.825 65.4296 34.8757 65.1 34.8757C64.9226 34.8757 64.7705 34.8757 64.6437 34.8503C64.4916 34.8503 64.3902 34.825 64.2888 34.7997L64.8465 31.4337ZM64.7958 34.4201C64.8465 34.4201 64.8972 34.4201 64.9733 34.4454C65.0493 34.4454 65.1254 34.4454 65.2014 34.4454C65.4296 34.4454 65.607 34.3948 65.7845 34.3189C65.9619 34.2429 66.114 34.1164 66.2154 33.9898C66.3422 33.838 66.4182 33.6608 66.4942 33.4837C66.5449 33.2812 66.5957 33.0787 66.5957 32.8256C66.5957 32.4966 66.5196 32.2435 66.3675 32.0664C66.2154 31.8892 65.9619 31.8133 65.607 31.8133C65.5563 31.8133 65.4803 31.8133 65.4296 31.8133C65.3789 31.8133 65.3282 31.8133 65.2775 31.8386L64.7958 34.4201Z" fill="white"/>
<path d="M68.0913 31.4336H69.8911C69.8911 31.5855 69.8658 31.712 69.8151 31.8639H68.4969L68.3195 32.8256H69.3588C69.3588 32.9775 69.3334 33.104 69.2827 33.2559H68.2434C68.2181 33.4584 68.1673 33.6355 68.142 33.838C68.1166 34.0405 68.066 34.2176 68.0406 34.4201H69.3841C69.3841 34.496 69.3588 34.572 69.3588 34.6226C69.3588 34.6732 69.3335 34.7491 69.3081 34.825H67.4829L68.0913 31.4336Z" fill="white"/>
<path d="M74.3021 34.3189C74.3528 34.4201 74.4035 34.5719 74.4035 34.7238C74.3528 34.7491 74.2768 34.7744 74.2007 34.7997C74.1247 34.825 74.0486 34.825 73.9726 34.8503C73.8965 34.8757 73.8205 34.8757 73.7444 34.8757C73.6684 34.8757 73.5923 34.8757 73.5416 34.8757C73.136 34.8757 72.8065 34.7491 72.5783 34.5213C72.3502 34.2936 72.2488 33.9645 72.2488 33.5596C72.2488 33.2812 72.2995 33.0028 72.3755 32.7244C72.4516 32.4713 72.5783 32.2182 72.7304 32.0158C72.8825 31.8133 73.0853 31.6614 73.3135 31.5349C73.5416 31.4083 73.8205 31.3577 74.1247 31.3577C74.3021 31.3577 74.4288 31.3577 74.5556 31.383C74.6823 31.4083 74.7837 31.4336 74.8598 31.459C74.8344 31.5349 74.8344 31.5855 74.8091 31.6614C74.7837 31.712 74.7584 31.788 74.7077 31.8639C74.6063 31.8386 74.5302 31.8133 74.4288 31.788C74.3528 31.7627 74.2514 31.7627 74.1247 31.7627C73.8965 31.7627 73.6937 31.8133 73.5163 31.9145C73.3388 32.0157 73.2121 32.1423 73.0853 32.2941C72.9839 32.446 72.9079 32.6485 72.8318 32.8509C72.7811 33.0534 72.7558 33.2812 72.7558 33.4837C72.7558 33.7874 72.8318 34.0152 72.9839 34.167C73.136 34.3189 73.3388 34.3948 73.643 34.3948C73.7698 34.3948 73.8712 34.3948 73.9726 34.3695C74.0993 34.3948 74.2007 34.3695 74.3021 34.3189Z" fill="white"/>
<path d="M76.1527 34.8757C75.9753 34.8757 75.7978 34.8503 75.6457 34.7744C75.4936 34.7238 75.3922 34.6226 75.2908 34.5213C75.1894 34.4201 75.1387 34.2936 75.088 34.1164C75.0373 33.9645 75.012 33.7874 75.012 33.6102C75.012 33.3318 75.0373 33.0281 75.1134 32.775C75.1894 32.4966 75.2908 32.2688 75.4429 32.0411C75.595 31.8386 75.7725 31.6614 75.9753 31.5349C76.1781 31.4083 76.4315 31.3324 76.7104 31.3324C76.8878 31.3324 77.0653 31.3577 77.2174 31.4337C77.3695 31.4843 77.4709 31.5855 77.5723 31.6867C77.6737 31.788 77.7244 31.9398 77.7751 32.0917C77.8258 32.2435 77.8511 32.4207 77.8511 32.5979C77.8511 32.9016 77.8004 33.18 77.7244 33.4584C77.6483 33.7368 77.5469 33.9645 77.3948 34.167C77.2427 34.3695 77.0653 34.5466 76.8625 34.6732C76.6597 34.825 76.4062 34.8757 76.1527 34.8757ZM76.2034 34.4707C76.3808 34.4707 76.5583 34.4201 76.7104 34.3189C76.8625 34.2176 76.9639 34.0658 77.0653 33.8886C77.1667 33.7115 77.2428 33.509 77.2935 33.3065C77.3442 33.0787 77.3695 32.8763 77.3695 32.6485C77.3695 32.3954 77.3188 32.1929 77.2174 32.0411C77.116 31.8892 76.9385 31.8133 76.7104 31.8133C76.5329 31.8133 76.3555 31.8639 76.2034 31.9651C76.0513 32.0664 75.9246 32.2182 75.8485 32.3954C75.7471 32.5726 75.6711 32.775 75.6204 32.9775C75.5697 33.2053 75.5443 33.4077 75.5443 33.6355C75.5443 33.8886 75.595 34.1164 75.6964 34.2429C75.7978 34.3948 75.9752 34.4707 76.2034 34.4707Z" fill="white"/>
<path d="M78.8651 31.4336C78.8904 31.4336 78.9411 31.4336 78.9918 31.4336C79.0425 31.4336 79.0679 31.4336 79.1186 31.4336C79.1946 31.4336 79.2707 31.4336 79.3214 31.459L80.2847 34.0152L80.7409 31.459C80.7663 31.459 80.7917 31.459 80.8424 31.459C80.8677 31.459 80.893 31.459 80.9437 31.459H81.0452L81.1972 31.4843L80.5889 34.8757C80.5635 34.8757 80.5128 34.8757 80.4875 34.8757C80.4368 34.8757 80.4114 34.8757 80.3607 34.8757C80.3354 34.8757 80.2846 34.8757 80.2593 34.8757C80.2339 34.8757 80.1833 34.8757 80.1579 34.8757L79.1946 32.3195L78.7637 34.8757C78.713 34.8757 78.6369 34.901 78.5862 34.901H78.4595L78.3074 34.8757L78.8651 31.4336Z" fill="white"/>
<path d="M82.4901 31.8386H81.6536C81.6536 31.7627 81.6536 31.712 81.6789 31.6361C81.6789 31.5602 81.7043 31.4843 81.7296 31.4336H83.9097C83.9097 31.5096 83.9097 31.5855 83.8844 31.6361C83.859 31.712 83.859 31.7627 83.8337 31.8386H82.9971L82.4648 34.825C82.3887 34.825 82.2873 34.8504 82.2113 34.8504C82.1606 34.8504 82.1352 34.8504 82.0845 34.8504C82.0338 34.8504 82.0085 34.8504 81.9831 34.8504L82.4901 31.8386Z" fill="white"/>
<path d="M84.7462 31.4336C84.7969 31.4336 84.8477 31.4336 84.8984 31.4336C84.9491 31.4336 84.9997 31.4336 85.0504 31.4336C85.1011 31.4336 85.1518 31.4336 85.2025 31.4336C85.2532 31.4336 85.3039 31.4336 85.3293 31.4336L85.7856 34.825C85.6842 34.825 85.6081 34.8504 85.5067 34.8504C85.4307 34.8504 85.3547 34.8503 85.2786 34.825L85.1772 34.0152H84.0365L83.6816 34.825C83.6055 34.825 83.5295 34.8504 83.4281 34.8504C83.3774 34.8504 83.352 34.8504 83.3013 34.8504C83.2506 34.8504 83.2253 34.8504 83.1746 34.8504L84.7462 31.4336ZM85.1519 33.6102L84.949 31.9651L84.2393 33.6102H85.1519Z" fill="white"/>
<path d="M86.2673 34.3189C86.394 34.3695 86.4955 34.3948 86.6222 34.4201C86.7236 34.4454 86.8504 34.4707 87.0025 34.4707C87.2813 34.4707 87.4841 34.4201 87.6109 34.2936C87.763 34.167 87.839 34.0152 87.839 33.8127C87.839 33.6861 87.7883 33.5849 87.7123 33.4837C87.6362 33.3824 87.5095 33.3065 87.332 33.2053C87.2306 33.1547 87.1292 33.0787 87.0532 33.0281C86.9771 32.9775 86.9011 32.9016 86.825 32.8509C86.7743 32.775 86.7236 32.6991 86.6729 32.6232C86.6476 32.5472 86.6222 32.446 86.6222 32.3448C86.6222 32.1929 86.6476 32.0664 86.6983 31.9398C86.749 31.8133 86.825 31.712 86.9518 31.6361C87.0532 31.5602 87.1799 31.4843 87.332 31.4336C87.4841 31.383 87.6362 31.3577 87.839 31.3577C88.0165 31.3577 88.1686 31.383 88.27 31.383C88.3967 31.4083 88.4981 31.4336 88.6249 31.4843C88.6249 31.5602 88.5995 31.6108 88.5742 31.6867C88.5488 31.7627 88.5235 31.8133 88.4728 31.8892C88.3967 31.8639 88.2953 31.8133 88.1939 31.788C88.0925 31.7627 87.9658 31.7374 87.839 31.7374C87.7376 31.7374 87.6362 31.7374 87.5602 31.7627C87.4841 31.788 87.4081 31.8133 87.332 31.8386C87.2813 31.8639 87.2306 31.9145 87.1799 31.9904C87.1546 32.0411 87.1292 32.117 87.1292 32.2182C87.1292 32.3448 87.1546 32.446 87.2306 32.5219C87.3067 32.5979 87.4334 32.6991 87.5855 32.775C87.7123 32.8256 87.8137 32.9016 87.8897 32.9522C87.9911 33.0028 88.0672 33.0787 88.1179 33.1547C88.1939 33.2306 88.2446 33.3065 88.27 33.3824C88.2953 33.4584 88.3207 33.5596 88.3207 33.6861C88.3207 33.8633 88.2953 34.0152 88.2193 34.167C88.1432 34.3189 88.0672 34.4201 87.9404 34.5213C87.8137 34.6226 87.6869 34.6985 87.5095 34.7491C87.332 34.7997 87.1546 34.825 86.9264 34.825C86.749 34.825 86.5968 34.7997 86.4701 34.7744C86.3433 34.7491 86.1912 34.7238 86.0898 34.6732C86.1405 34.5973 86.1912 34.4454 86.2673 34.3189Z" fill="white"/>
<path d="M91.6161 31.4337C91.6668 31.4337 91.7174 31.4337 91.7935 31.4083C91.8442 31.4083 91.9203 31.4084 91.9963 31.383C92.0724 31.383 92.1231 31.383 92.1991 31.383C92.2498 31.383 92.3259 31.383 92.3766 31.383C92.6301 31.383 92.8582 31.4083 93.061 31.4843C93.2638 31.5602 93.4159 31.6361 93.5427 31.7627C93.6694 31.8892 93.7454 32.0411 93.8215 32.1929C93.8722 32.3701 93.8976 32.5472 93.8976 32.7497C93.8976 33.0534 93.8469 33.3318 93.7708 33.5849C93.6948 33.838 93.5427 34.0658 93.3906 34.2682C93.2131 34.4707 93.0103 34.6226 92.7568 34.7238C92.5033 34.825 92.1991 34.8757 91.8696 34.8757C91.6921 34.8757 91.54 34.8757 91.4132 34.8503C91.2611 34.8503 91.1597 34.825 91.0583 34.7997L91.6161 31.4337ZM91.5907 34.4201C91.6414 34.4201 91.6921 34.4201 91.7681 34.4454C91.8442 34.4454 91.9203 34.4454 91.9963 34.4454C92.2245 34.4454 92.4019 34.3948 92.5794 34.3189C92.7568 34.2429 92.9089 34.1164 93.0103 33.9898C93.1371 33.838 93.2131 33.6608 93.2892 33.4837C93.3399 33.2812 93.3906 33.0787 93.3906 32.8256C93.3906 32.4966 93.3145 32.2435 93.1624 32.0664C93.0103 31.8892 92.7568 31.8133 92.4019 31.8133C92.3512 31.8133 92.2751 31.8133 92.2244 31.8133C92.1737 31.8133 92.1231 31.8133 92.0724 31.8386L91.5907 34.4201Z" fill="white"/>
<path d="M95.4945 34.8757C95.317 34.8757 95.1396 34.8503 94.9875 34.7744C94.8354 34.7238 94.734 34.6226 94.6326 34.5213C94.5312 34.4201 94.4805 34.2936 94.4298 34.1164C94.3791 33.9645 94.3538 33.7874 94.3538 33.6102C94.3538 33.3318 94.3791 33.0281 94.4551 32.775C94.5312 32.4966 94.6326 32.2688 94.7847 32.0411C94.9368 31.8386 95.1142 31.6614 95.317 31.5349C95.5198 31.4083 95.7733 31.3324 96.0522 31.3324C96.2296 31.3324 96.4071 31.3577 96.5592 31.4337C96.7113 31.4843 96.8127 31.5855 96.9141 31.6867C97.0155 31.788 97.0662 31.9398 97.1169 32.0917C97.1676 32.2435 97.1929 32.4207 97.1929 32.5979C97.1929 32.9016 97.1422 33.18 97.0662 33.4584C96.9901 33.7368 96.8887 33.9645 96.7366 34.167C96.5845 34.3695 96.4071 34.5466 96.2043 34.6732C96.0268 34.825 95.7733 34.8757 95.4945 34.8757ZM95.5452 34.4707C95.7226 34.4707 95.9001 34.4201 96.0522 34.3189C96.2043 34.2176 96.3057 34.0658 96.4071 33.8886C96.5085 33.7115 96.5845 33.509 96.6352 33.3065C96.6859 33.0787 96.7113 32.8763 96.7113 32.6485C96.7113 32.3954 96.6606 32.1929 96.5592 32.0411C96.4578 31.8892 96.2803 31.8133 96.0522 31.8133C95.8747 31.8133 95.6973 31.8639 95.5452 31.9651C95.3931 32.0664 95.2663 32.2182 95.1903 32.3954C95.0889 32.5726 95.0128 32.775 94.9621 32.9775C94.9114 33.2053 94.8861 33.4077 94.8861 33.6355C94.8861 33.8886 94.9368 34.1164 95.0382 34.2429C95.165 34.3948 95.317 34.4707 95.5452 34.4707Z" fill="white"/>
<path d="M100.387 31.4336H102.187C102.187 31.5855 102.162 31.712 102.111 31.8639H100.793L100.615 32.8256H101.655C101.655 32.9775 101.629 33.104 101.579 33.2559H100.539C100.514 33.4584 100.463 33.6355 100.438 33.838C100.413 34.0405 100.362 34.2176 100.337 34.4201H101.68C101.68 34.496 101.655 34.572 101.655 34.6226C101.655 34.6732 101.629 34.7491 101.604 34.825H99.7788L100.387 31.4336Z" fill="white"/>
<path d="M102.238 34.3189C102.364 34.3695 102.466 34.3948 102.592 34.4201C102.694 34.4454 102.821 34.4707 102.973 34.4707C103.252 34.4707 103.454 34.4201 103.581 34.2936C103.733 34.167 103.809 34.0152 103.809 33.8127C103.809 33.6861 103.758 33.5849 103.682 33.4837C103.606 33.3824 103.48 33.3065 103.302 33.2053C103.201 33.1547 103.099 33.0787 103.023 33.0281C102.947 32.9775 102.871 32.9016 102.795 32.8509C102.745 32.775 102.694 32.6991 102.643 32.6232C102.618 32.5472 102.592 32.446 102.592 32.3448C102.592 32.1929 102.618 32.0664 102.668 31.9398C102.719 31.8133 102.795 31.712 102.922 31.6361C103.023 31.5602 103.15 31.4843 103.302 31.4336C103.454 31.383 103.606 31.3577 103.809 31.3577C103.987 31.3577 104.139 31.383 104.24 31.383C104.367 31.4083 104.468 31.4336 104.595 31.4843C104.595 31.5602 104.57 31.6108 104.544 31.6867C104.519 31.7627 104.494 31.8133 104.443 31.8892C104.367 31.8639 104.265 31.8133 104.164 31.788C104.063 31.7627 103.936 31.7374 103.809 31.7374C103.708 31.7374 103.606 31.7374 103.53 31.7627C103.454 31.788 103.378 31.8133 103.302 31.8386C103.252 31.8639 103.201 31.9145 103.15 31.9904C103.125 32.0411 103.099 32.117 103.099 32.2182C103.099 32.3448 103.125 32.446 103.201 32.5219C103.277 32.5979 103.404 32.6991 103.556 32.775C103.682 32.8256 103.784 32.9016 103.86 32.9522C103.961 33.0028 104.037 33.0787 104.088 33.1547C104.164 33.2306 104.215 33.3065 104.24 33.3824C104.265 33.4584 104.291 33.5596 104.291 33.6861C104.291 33.8633 104.265 34.0152 104.189 34.167C104.113 34.3189 104.037 34.4201 103.911 34.5213C103.784 34.6226 103.657 34.6985 103.48 34.7491C103.302 34.7997 103.125 34.825 102.897 34.825C102.719 34.825 102.567 34.7997 102.44 34.7744C102.314 34.7491 102.161 34.7238 102.06 34.6732C102.111 34.5973 102.161 34.4454 102.238 34.3189Z" fill="white"/>
<path d="M105.786 31.8386H104.95C104.95 31.7627 104.95 31.712 104.975 31.6361C104.975 31.5602 105.001 31.4843 105.026 31.4336H107.206C107.206 31.5096 107.206 31.5855 107.181 31.6361C107.155 31.712 107.155 31.7627 107.13 31.8386H106.293L105.761 34.825C105.685 34.825 105.584 34.8504 105.508 34.8504C105.457 34.8504 105.432 34.8504 105.381 34.8504C105.33 34.8504 105.305 34.8504 105.279 34.8504L105.786 31.8386Z" fill="white"/>
<path d="M108.017 31.4336C108.068 31.4336 108.119 31.4336 108.169 31.4336C108.22 31.4336 108.271 31.4336 108.321 31.4336C108.372 31.4336 108.423 31.4336 108.474 31.4336C108.524 31.4336 108.575 31.4336 108.6 31.4336L109.057 34.825C108.955 34.825 108.879 34.8504 108.778 34.8504C108.702 34.8504 108.626 34.8503 108.55 34.825L108.448 34.0152H107.307L106.953 34.825C106.877 34.825 106.8 34.8504 106.699 34.8504C106.648 34.8504 106.623 34.8504 106.572 34.8504C106.522 34.8504 106.496 34.8504 106.446 34.8504L108.017 31.4336ZM108.423 33.6102L108.22 31.9651L107.51 33.6102H108.423Z" fill="white"/>
<path d="M110.198 31.4337C110.248 31.4337 110.299 31.4337 110.375 31.4083C110.426 31.4083 110.502 31.4084 110.578 31.383C110.654 31.383 110.705 31.383 110.781 31.383C110.831 31.383 110.907 31.383 110.958 31.383C111.212 31.383 111.44 31.4083 111.643 31.4843C111.845 31.5602 111.997 31.6361 112.124 31.7627C112.251 31.8892 112.327 32.0411 112.403 32.1929C112.454 32.3701 112.479 32.5472 112.479 32.7497C112.479 33.0534 112.428 33.3318 112.352 33.5849C112.276 33.838 112.124 34.0658 111.972 34.2682C111.795 34.4707 111.592 34.6226 111.338 34.7238C111.085 34.825 110.781 34.8757 110.451 34.8757C110.274 34.8757 110.122 34.8757 109.995 34.8503C109.843 34.8503 109.741 34.825 109.64 34.7997L110.198 31.4337ZM110.172 34.4201C110.223 34.4201 110.274 34.4201 110.35 34.4454C110.426 34.4454 110.502 34.4454 110.578 34.4454C110.806 34.4454 110.983 34.3948 111.161 34.3189C111.338 34.2429 111.49 34.1164 111.592 33.9898C111.719 33.838 111.795 33.6608 111.871 33.4837C111.921 33.2812 111.972 33.0787 111.972 32.8256C111.972 32.4966 111.896 32.2435 111.744 32.0664C111.592 31.8892 111.338 31.8133 110.983 31.8133C110.933 31.8133 110.857 31.8133 110.806 31.8133C110.755 31.8133 110.705 31.8133 110.654 31.8386L110.172 34.4201Z" fill="white"/>
<path d="M114.076 34.8757C113.899 34.8757 113.721 34.8503 113.569 34.7744C113.417 34.7238 113.316 34.6226 113.214 34.5213C113.113 34.4201 113.062 34.2936 113.011 34.1164C112.961 33.9645 112.935 33.7874 112.935 33.6102C112.935 33.3318 112.961 33.0281 113.037 32.775C113.113 32.4966 113.214 32.2688 113.366 32.0411C113.518 31.8386 113.696 31.6614 113.899 31.5349C114.101 31.4083 114.355 31.3324 114.634 31.3324C114.811 31.3324 114.989 31.3577 115.141 31.4337C115.293 31.4843 115.394 31.5855 115.496 31.6867C115.597 31.788 115.648 31.9398 115.698 32.0917C115.749 32.2435 115.774 32.4207 115.774 32.5979C115.774 32.9016 115.724 33.18 115.648 33.4584C115.572 33.7368 115.47 33.9645 115.318 34.167C115.166 34.3695 114.989 34.5466 114.786 34.6732C114.608 34.825 114.355 34.8757 114.076 34.8757ZM114.127 34.4707C114.304 34.4707 114.482 34.4201 114.634 34.3189C114.786 34.2176 114.887 34.0658 114.989 33.8886C115.09 33.7115 115.166 33.509 115.217 33.3065C115.267 33.0787 115.293 32.8763 115.293 32.6485C115.293 32.3954 115.242 32.1929 115.141 32.0411C115.039 31.8892 114.862 31.8133 114.634 31.8133C114.456 31.8133 114.279 31.8639 114.127 31.9651C113.975 32.0664 113.848 32.2182 113.772 32.3954C113.67 32.5726 113.594 32.775 113.544 32.9775C113.493 33.2053 113.468 33.4077 113.468 33.6355C113.468 33.8886 113.518 34.1164 113.62 34.2429C113.721 34.3948 113.899 34.4707 114.127 34.4707Z" fill="white"/>
<path d="M118.969 31.4337C119.019 31.4337 119.07 31.4337 119.146 31.4083C119.197 31.4083 119.273 31.4084 119.349 31.383C119.425 31.383 119.476 31.383 119.552 31.383C119.602 31.383 119.678 31.383 119.729 31.383C119.983 31.383 120.211 31.4083 120.414 31.4843C120.616 31.5602 120.768 31.6361 120.895 31.7627C121.022 31.8892 121.098 32.0411 121.174 32.1929C121.225 32.3701 121.25 32.5472 121.25 32.7497C121.25 33.0534 121.199 33.3318 121.123 33.5849C121.047 33.838 120.895 34.0658 120.743 34.2682C120.566 34.4707 120.363 34.6226 120.109 34.7238C119.856 34.825 119.552 34.8757 119.222 34.8757C119.045 34.8757 118.893 34.8757 118.766 34.8503C118.614 34.8503 118.512 34.825 118.411 34.7997L118.969 31.4337ZM118.918 34.4201C118.969 34.4201 119.019 34.4201 119.095 34.4454C119.171 34.4454 119.247 34.4454 119.324 34.4454C119.552 34.4454 119.729 34.3948 119.907 34.3189C120.084 34.2429 120.236 34.1164 120.338 33.9898C120.464 33.838 120.54 33.6608 120.616 33.4837C120.667 33.2812 120.718 33.0787 120.718 32.8256C120.718 32.4966 120.642 32.2435 120.49 32.0664C120.338 31.8892 120.084 31.8133 119.729 31.8133C119.678 31.8133 119.602 31.8133 119.552 31.8133C119.501 31.8133 119.45 31.8133 119.4 31.8386L118.918 34.4201Z" fill="white"/>
<path d="M122.847 34.8757C122.67 34.8757 122.492 34.8503 122.34 34.7744C122.188 34.7238 122.087 34.6226 121.985 34.5213C121.884 34.4201 121.833 34.2936 121.782 34.1164C121.732 33.9645 121.706 33.7874 121.706 33.6102C121.706 33.3318 121.732 33.0281 121.808 32.775C121.884 32.4966 121.985 32.2688 122.137 32.0411C122.289 31.8386 122.467 31.6614 122.67 31.5349C122.872 31.4083 123.126 31.3324 123.405 31.3324C123.582 31.3324 123.76 31.3577 123.912 31.4337C124.064 31.4843 124.165 31.5855 124.267 31.6867C124.368 31.788 124.419 31.9398 124.469 32.0917C124.52 32.2435 124.546 32.4207 124.546 32.5979C124.546 32.9016 124.495 33.18 124.419 33.4584C124.343 33.7368 124.241 33.9645 124.089 34.167C123.937 34.3695 123.76 34.5466 123.557 34.6732C123.354 34.825 123.126 34.8757 122.847 34.8757ZM122.898 34.4707C123.075 34.4707 123.253 34.4201 123.405 34.3189C123.557 34.2176 123.658 34.0658 123.76 33.8886C123.861 33.7115 123.937 33.509 123.988 33.3065C124.038 33.0787 124.064 32.8763 124.064 32.6485C124.064 32.3954 124.013 32.1929 123.912 32.0411C123.81 31.8892 123.633 31.8133 123.405 31.8133C123.227 31.8133 123.05 31.8639 122.898 31.9651C122.746 32.0664 122.619 32.2182 122.543 32.3954C122.441 32.5726 122.365 32.775 122.315 32.9775C122.264 33.2053 122.239 33.4077 122.239 33.6355C122.239 33.8886 122.289 34.1164 122.391 34.2429C122.492 34.3948 122.67 34.4707 122.898 34.4707Z" fill="white"/>
<path d="M128.424 31.4336C128.475 31.4336 128.525 31.4336 128.576 31.4336C128.627 31.4336 128.677 31.4336 128.728 31.4336C128.779 31.4336 128.83 31.4336 128.88 31.4336C128.931 31.4336 128.982 31.4336 129.007 31.4336L129.463 34.825C129.362 34.825 129.286 34.8504 129.184 34.8504C129.108 34.8504 129.032 34.8503 128.956 34.825L128.855 34.0152H127.714L127.359 34.825C127.283 34.825 127.207 34.8504 127.106 34.8504C127.055 34.8504 127.03 34.8504 126.979 34.8504C126.928 34.8504 126.903 34.8504 126.852 34.8504L128.424 31.4336ZM128.804 33.6102L128.601 31.9651L127.892 33.6102H128.804Z" fill="white"/>
<path d="M130.68 31.4336C130.731 31.4336 130.756 31.4336 130.807 31.4083C130.858 31.4083 130.908 31.4083 130.959 31.4083C131.01 31.4083 131.035 31.4083 131.086 31.4083C131.137 31.4083 131.162 31.4083 131.213 31.4336L131.669 33.5343L132.886 31.4336C132.911 31.4336 132.962 31.4336 133.012 31.4083C133.063 31.4083 133.114 31.4083 133.139 31.4083C133.19 31.4083 133.215 31.4083 133.266 31.4083C133.317 31.4083 133.342 31.4083 133.393 31.4336L132.962 34.825C132.911 34.825 132.886 34.825 132.835 34.8504C132.784 34.8504 132.759 34.8504 132.708 34.8504C132.657 34.8504 132.632 34.8504 132.581 34.8504C132.556 34.8504 132.505 34.8504 132.48 34.825L132.835 32.2435L131.745 34.1164C131.669 34.1164 131.618 34.1417 131.542 34.1417C131.491 34.1417 131.415 34.1417 131.365 34.1164L130.934 32.2182L130.376 34.825C130.351 34.825 130.3 34.825 130.275 34.8504C130.249 34.8504 130.199 34.8504 130.148 34.8504C130.123 34.8504 130.072 34.8504 130.046 34.8504C130.021 34.8504 129.97 34.8504 129.945 34.825L130.68 31.4336Z" fill="white"/>
<path d="M135.091 31.4336C135.142 31.4336 135.192 31.4336 135.243 31.4336C135.294 31.4336 135.344 31.4336 135.395 31.4336C135.446 31.4336 135.497 31.4336 135.547 31.4336C135.598 31.4336 135.649 31.4336 135.674 31.4336L136.13 34.825C136.029 34.825 135.953 34.8504 135.851 34.8504C135.775 34.8504 135.699 34.8503 135.623 34.825L135.522 34.0152H134.381L134.026 34.825C133.95 34.825 133.874 34.8504 133.773 34.8504C133.722 34.8504 133.697 34.8504 133.646 34.8504C133.595 34.8504 133.57 34.8504 133.519 34.8504L135.091 31.4336ZM135.471 33.6102L135.268 31.9651L134.559 33.6102H135.471Z" fill="white"/>
<path d="M137.271 31.4337C137.372 31.4083 137.474 31.4083 137.601 31.4083C137.727 31.4083 137.854 31.383 137.955 31.383C138.108 31.383 138.26 31.4083 138.386 31.4337C138.513 31.459 138.64 31.5096 138.767 31.5855C138.868 31.6614 138.969 31.7374 139.02 31.8639C139.096 31.9905 139.122 32.117 139.122 32.2942C139.122 32.4966 139.096 32.6991 139.02 32.851C138.944 33.0028 138.843 33.1547 138.716 33.2559C138.589 33.3571 138.437 33.4584 138.26 33.509C138.082 33.5596 137.905 33.5849 137.702 33.5849C137.575 33.5849 137.474 33.5849 137.372 33.5596L137.144 34.7997C137.068 34.7997 136.992 34.825 136.891 34.825C136.815 34.825 136.739 34.825 136.663 34.7997L137.271 31.4337ZM137.448 33.18C137.499 33.18 137.525 33.18 137.575 33.2053C137.626 33.2053 137.677 33.2053 137.727 33.2053C137.854 33.2053 137.981 33.18 138.082 33.1547C138.184 33.1294 138.285 33.0787 138.361 33.0028C138.437 32.9269 138.513 32.851 138.539 32.7497C138.589 32.6485 138.615 32.5219 138.615 32.3701C138.615 32.1676 138.564 32.0158 138.437 31.9398C138.31 31.8639 138.158 31.8133 137.955 31.8133C137.905 31.8133 137.879 31.8133 137.829 31.8133C137.778 31.8133 137.753 31.8133 137.702 31.8386L137.448 33.18Z" fill="white"/>
<path d="M140.339 31.4336C140.389 31.4336 140.44 31.4336 140.491 31.4336C140.541 31.4336 140.592 31.4336 140.643 31.4336C140.693 31.4336 140.744 31.4336 140.795 31.4336C140.846 31.4336 140.896 31.4336 140.922 31.4336L141.378 34.825C141.276 34.825 141.2 34.8503 141.099 34.8503C141.023 34.8503 140.947 34.8503 140.871 34.825L140.769 34.0152H139.629L139.274 34.825C139.198 34.825 139.122 34.8503 139.02 34.8503C138.97 34.8503 138.944 34.8503 138.894 34.8503C138.843 34.8503 138.818 34.8503 138.767 34.8503L140.339 31.4336ZM140.744 33.6102L140.541 31.9651L139.832 33.6102H140.744ZM140.846 30.6238C140.871 30.6238 140.922 30.6238 140.972 30.5985C141.023 30.5985 141.074 30.5985 141.124 30.5985C141.175 30.5985 141.251 30.5985 141.302 30.5985C141.353 30.5985 141.403 30.5985 141.454 30.6238L140.769 31.1552C140.744 31.1552 140.693 31.1552 140.643 31.1552C140.592 31.1552 140.541 31.1552 140.491 31.1552C140.44 31.1552 140.415 31.1552 140.364 31.1552C140.313 31.1552 140.288 31.1553 140.262 31.1299L140.846 30.6238Z" fill="white"/>
<path d="M19.0646 11.6168C18.8871 11.6168 18.7097 11.6421 18.5322 11.6421C14.096 11.6421 11.1808 11.6421 6.74453 11.6421C6.31358 11.6421 6.18683 11.7433 6.18683 12.1736C6.21218 13.9705 6.21218 15.7928 6.18683 17.5897C6.18683 17.944 6.28823 18.0199 6.61778 18.0199C9.40626 17.9946 10.6991 18.0199 13.4622 17.9946C13.8678 17.9946 13.9439 18.0959 13.9439 18.5008C13.9185 22.0694 13.9439 25.6379 13.9185 29.2065C13.9185 29.5861 14.0199 29.6873 14.4002 29.662C15.9972 29.6367 17.5943 29.6367 19.1913 29.662C19.5209 29.662 19.5969 29.5608 19.5969 29.2571C19.5716 28.2194 19.5969 27.1564 19.5969 26.1188C19.5969 25.9416 19.6223 25.7645 19.6476 25.5873C19.8504 25.6126 19.8504 25.7898 19.9265 25.9163C20.9151 27.8398 22.1572 29.5608 23.7289 31.0287C24.5401 31.788 25.402 32.4713 26.3146 33.0787C26.4414 33.1547 26.6442 33.18 26.6188 33.4077C26.416 33.4077 26.2132 33.4331 25.9851 33.4331C17.1633 33.4331 13.5129 33.4331 4.69119 33.4331C1.26896 33.5343 0.00146521 32.9269 0.00146521 30.2441C0.00146521 20.0193 0.00146521 17.0582 0.00146521 6.8334C-0.0492345 3.34077 1.21826 3.13831 3.4237 3.13831C14.3241 3.16361 19.6476 3.13831 27.5821 3.13831C27.6328 3.13831 27.8103 3.13831 27.861 3.13831C27.8356 3.39139 27.4807 3.44201 27.3286 3.54325C25.7316 4.45437 24.312 5.56796 23.0445 6.88402C21.4474 8.55441 20.256 8.98466 19.3688 11.1106C19.2927 11.2878 19.2167 11.4902 19.0646 11.6168Z" fill="white"/>
<path d="M26.5681 33.433C24.2359 31.9398 22.2586 30.0417 20.763 27.6879C20.332 27.0299 19.9518 26.3213 19.6222 25.6126C19.5462 25.0811 19.5969 24.5749 19.5969 24.0435C19.5969 22.1706 19.5969 20.323 19.5969 18.4502C19.5969 18.1212 19.6983 18.0199 20.0278 18.0199C21.6756 18.0452 23.3487 18.0452 24.9964 18.0199C25.3513 18.0199 25.4273 18.1465 25.4527 18.4755C25.6301 23.4867 29.6608 27.8651 34.6547 28.5231C35.187 28.5991 35.3645 28.6244 35.8715 28.5991C36.5052 28.5737 36.6066 28.7509 36.6066 29.2318C36.5813 31.2818 36.5813 32.3701 36.6066 34.4201C36.6066 35.6349 36.5306 35.9892 35.2124 35.9639C32.7788 36.1664 30.5734 35.5084 28.013 34.1923C27.4807 33.9898 27.0497 33.6861 26.5681 33.433Z" fill="#E9C82F"/>
<path d="M19.0645 11.6168C20.6361 7.41551 23.4246 4.22659 27.3032 1.97409C27.4553 1.89817 27.6074 1.79693 27.7595 1.6957C28.7227 1.26544 28.9255 1.11359 29.8635 0.784577C31.2324 0.202473 33.4125 0.0253089 35.6179 0C36.2517 0 36.6065 0.227782 36.5812 1.16421C36.5558 3.21423 36.5559 4.17597 36.5559 6.22599C36.5559 6.95995 36.3277 7.13711 35.5672 7.13711C32.0943 7.18772 29.8381 8.57972 27.6581 11.2878C27.506 11.4649 27.4046 11.6421 27.1257 11.6421C24.464 11.6168 21.7769 11.6168 19.0645 11.6168Z" fill="#E9C82F"/>
</svg>
